<svg width="86" height="145" viewBox="0 0 86 145" fill="none" xmlns="http://www.w3.org/2000/svg">
<mask id="mask0_45_1149" style="mask-type:luminance" maskUnits="userSpaceOnUse" x="-64" y="0" width="150" height="145">
<path d="M85.6074 0H-64V145H85.6074V0Z" fill="white"/>
</mask>
<g mask="url(#mask0_45_1149)">
<path d="M68.7572 59.3987C69.7945 58.6057 69.972 57.1465 69.1541 56.1407C68.3353 55.1341 66.8302 54.9608 65.792 55.7537C65.2843 56.1416 64.9841 56.6885 64.9043 57.2635C61.2479 58.0474 58.3964 56.3849 57.7401 53.9095C57.1556 51.7039 58.7983 49.4709 60.2844 48.004C61.189 48.3944 62.2792 48.2984 63.111 47.663C64.3049 46.7506 64.5093 45.0735 63.5678 43.9155C62.6263 42.7581 60.8958 42.5588 59.701 43.4713C58.8691 44.1067 58.5191 45.1119 58.6996 46.0553C56.8804 47.1138 54.2572 48.1404 52.1807 47.0751C49.8498 45.8786 48.8474 42.8032 50.4881 39.5405C51.0836 39.5995 51.7019 39.4435 52.2096 39.0556C53.2479 38.2627 53.4254 36.8036 52.6066 35.7977C51.7887 34.7911 50.2827 34.6178 49.2454 35.4107C48.2889 36.1413 48.0645 37.4358 48.6729 38.4216L42.4492 46.5821L55.9628 63.1953L65.6025 59.2353C66.4502 60.0394 67.8007 60.1293 68.7572 59.3987Z" fill="url(#paint0_linear_45_1149)"/>
<path d="M-1.76123 98.4292L46.5738 111.178L46.3963 111.954L46.1629 112.745L-2.19629 100.003L-1.76123 98.4292Z" fill="#AEFA03"/>
<path d="M46.9405 49.637C45.7356 48.0719 44.4091 46.5988 42.9729 45.2305C34.9736 37.6128 24.0037 33.6607 12.8129 34.365L-1.578 35.2707C-1.63555 35.2743 -1.64084 35.3545 -1.58419 35.3651L9.64973 37.4822C11.9447 37.9147 14.0543 39.0014 15.7082 40.6031C15.7165 40.6111 15.7118 40.6253 15.7005 40.6229C15.0483 40.4877 5.67646 38.5569 -0.497639 37.9793C-10.6351 37.031 -20.8188 38.5321 -30.7928 40.5286L-31.8638 40.743C-31.9557 40.7613 -31.9413 40.8925 -31.8476 40.8918L-30.0982 40.8792C-22.7594 40.826 -15.4615 41.9412 -8.49565 44.1802C-8.43082 44.201 -8.43591 44.2915 -8.50273 44.3054L-14.0944 45.4676C-19.5643 46.6046 -25.1409 47.1907 -30.7352 47.2166C-36.946 47.2453 -43.1396 46.5834 -49.1947 45.2437L-50.139 45.0348C-50.1806 45.0255 -50.2122 45.0708 -50.1877 45.1049C-46.9196 49.6518 -42.7104 53.4449 -38.2295 56.8867C-38.1981 56.9109 -38.167 56.9348 -38.1362 56.9586C-36.4252 58.2806 -34.1296 60.8574 -33.6767 61.3719C-33.6459 61.4068 -33.6747 61.4585 -33.7218 61.4559C-37.4284 61.2566 -41.104 60.6868 -44.6899 59.7556L-45.2491 59.6104C-45.3034 59.5963 -45.3457 59.6563 -45.3124 59.7002L-45.1556 59.9068C-42.1261 63.9005 -38.9709 67.844 -35.0299 71.0035C-32.1197 73.3366 -28.4638 75.7642 -25.0545 76.5911C-22.7689 77.1454 -19.8428 77.1625 -17.2775 77.007C-13.467 76.776 -9.59816 77.6822 -6.6489 80.0322C-3.68468 82.3941 0.208012 83.3598 3.97852 82.6685L6.06345 82.2863C7.46676 82.0291 8.81492 81.5432 10.0506 80.8492L11.4972 80.0368C12.9027 79.2474 14.0092 78.0411 14.6533 76.5958L15.1101 75.5708C15.4876 74.7237 15.5604 73.7782 15.317 72.8861C14.8539 71.1902 15.551 69.3961 17.0534 68.4176L21.4812 65.5335C23.3975 64.2853 25.6511 63.6127 27.96 63.5997L42.2827 63.5196C46.4148 63.4964 50.3774 65.1091 53.2539 67.9843L54.4657 69.1961C54.8826 69.6126 55.2217 70.0958 55.4681 70.6244C56.7906 73.4626 60.4321 74.4616 63.0941 72.7163L64.1633 72.0151L64.1603 72.014L46.9405 49.637Z" fill="url(#paint1_linear_45_1149)"/>
<mask id="mask1_45_1149" style="mask-type:alpha" maskUnits="userSpaceOnUse" x="-19" y="3" width="134" height="130">
<path d="M48.2068 132.417C84.8376 132.417 114.533 103.637 114.533 68.1339C114.533 32.6312 84.8376 3.85059 48.2068 3.85059C11.576 3.85059 -18.1191 32.6312 -18.1191 68.1339C-18.1191 103.637 11.576 132.417 48.2068 132.417Z" fill="#D9D9D9"/>
</mask>
<g mask="url(#mask1_45_1149)">
<path d="M23.6297 90.2702L30.8083 87.1303C31.2201 86.9502 31.5456 86.6246 31.7184 86.2199L35.2493 77.9503C38.3307 70.7335 32.9574 62.7722 24.9005 62.6169C22.0416 62.5618 19.265 63.5459 17.117 65.3754L-2.71723 82.2696C-2.71723 82.2696 -7.79719 103.798 -0.778514 116.31C1.61969 120.585 5.64991 127.101 5.64991 127.101L7.79827 113.171C8.45425 108.916 9.99511 104.835 12.3272 101.175L14.1143 98.3708C16.3821 94.8118 19.6957 91.9909 23.6297 90.2702Z" fill="#AEFA03"/>
<path fill-rule="evenodd" clip-rule="evenodd" d="M22.2562 46.2531C14.6484 46.1065 7.144 47.9781 0.5541 51.6656L-26.0508 66.5529C-26.0508 66.5529 -20.6653 78.7337 -16.8605 86.3788C-11.7243 96.6991 -2.33901 112.956 -2.33901 112.956L-1.45792 97.5768C-1.18125 92.7489 0.336771 88.065 2.95819 83.9513C6.09107 79.0348 10.6685 75.138 16.1028 72.761L16.2462 72.6982C19.796 71.1456 23.6204 70.2679 27.5117 70.1129L29.7228 70.0248C30.2482 70.0038 30.7421 70.2672 31.005 70.7086C31.3954 71.3639 31.1638 72.2017 30.4876 72.5801L30.3613 72.6509C29.3008 73.2443 28.3193 73.9615 27.4389 74.7865C24.691 77.3618 23.0629 80.8579 22.8882 84.5588L22.8028 86.3679C22.6999 88.5486 22.9839 90.7302 23.6427 92.8177L24.2726 94.8137C25.152 97.601 25.6234 100.493 25.6731 103.408L25.8287 112.546C25.846 113.569 26.1324 114.572 26.6604 115.458C27.5874 117.014 29.1826 118.088 31.0107 118.386L35.7485 119.16C38.0106 119.529 40.3355 119.123 42.3223 118.011C44.355 116.873 45.9019 115.073 46.6878 112.929L59.4483 78.1206C59.8663 76.979 60.7878 76.0771 61.9618 75.6601L67.2329 73.7871C67.7905 73.5888 67.966 72.9072 67.569 72.4784L63.4947 68.0757L52.8287 58.697C49.5623 55.8245 45.9149 53.3863 41.9842 51.4471L40.3624 50.6472C34.7467 47.8767 28.5565 46.3745 22.2562 46.2531ZM45.1948 85.3711C44.6542 87.3267 45.1249 89.148 46.246 89.4391C47.3671 89.7302 48.7135 88.3809 49.2541 86.4254C49.7947 84.4698 49.3249 82.6485 48.2039 82.3574C47.0828 82.0663 45.7353 83.4157 45.1948 85.3711Z" fill="url(#paint2_linear_45_1149)"/>
</g>
<path d="M48.206 92.7994C50.6848 92.7994 52.6942 89.7699 52.6942 86.0328C52.6942 82.2957 50.6848 79.2661 48.206 79.2661C45.7272 79.2661 43.7178 82.2957 43.7178 86.0328C43.7178 89.7699 45.7272 92.7994 48.206 92.7994Z" fill="white"/>
<path d="M68.7572 59.3991C69.7945 58.6062 69.972 57.147 69.1541 56.1412C68.3353 55.1346 66.8302 54.9613 65.792 55.7542C65.2843 56.1421 64.9841 56.689 64.9043 57.264C61.2479 58.0479 58.3964 56.3854 57.7401 53.91C57.1556 51.7044 58.7983 49.4714 60.2844 48.0045C61.189 48.3949 62.2792 48.2989 63.111 47.6635C64.3049 46.7511 64.5093 45.074 63.5678 43.9159C62.6263 42.7586 60.8958 42.5593 59.701 43.4718C58.8691 44.1072 58.5191 45.1124 58.6996 46.0558C56.8804 47.1143 54.2572 48.1409 52.1807 47.0756C49.8498 45.8791 48.8474 42.8037 50.4881 39.541C51.0836 39.6 51.7019 39.444 52.2096 39.0561C53.2479 38.2632 53.4254 36.8041 52.6066 35.7982C51.7887 34.7916 50.2827 34.6183 49.2454 35.4112C48.2889 36.1418 48.0645 37.4363 48.6729 38.4221L42.4492 46.5826L55.9628 63.1958L65.6025 59.2358C66.4502 60.0398 67.8007 60.1297 68.7572 59.3991Z" fill="url(#paint3_linear_45_1149)"/>
<path d="M-1.76123 98.4302L46.5738 111.179L46.3963 111.955L46.1629 112.746L-2.19629 100.004L-1.76123 98.4302Z" fill="#AEFA03"/>
<path d="M46.9405 49.6375C45.7356 48.0724 44.4091 46.5993 42.9729 45.231C34.9736 37.6133 24.0037 33.6612 12.8129 34.3655L-1.578 35.2712C-1.63555 35.2748 -1.64084 35.355 -1.58419 35.3656L9.64973 37.4827C11.9447 37.9152 14.0543 39.0019 15.7082 40.6036C15.7165 40.6116 15.7118 40.6258 15.7005 40.6234C15.0483 40.4882 5.67646 38.5573 -0.497639 37.9798C-10.6351 37.0315 -20.8188 38.5326 -30.7928 40.529L-31.8638 40.7435C-31.9557 40.7618 -31.9413 40.893 -31.8476 40.8923L-30.0982 40.8797C-22.7594 40.8265 -15.4615 41.9416 -8.49565 44.1807C-8.43082 44.2015 -8.43591 44.292 -8.50273 44.3059L-14.0944 45.4681C-19.5643 46.6051 -25.1409 47.1912 -30.7352 47.2171C-36.946 47.2458 -43.1396 46.5839 -49.1947 45.2442L-50.139 45.0353C-50.1806 45.026 -50.2122 45.0713 -50.1877 45.1053C-46.9196 49.6523 -42.7104 53.4454 -38.2295 56.8872C-38.1981 56.9113 -38.167 56.9353 -38.1362 56.9591C-36.4252 58.2811 -34.1296 60.8579 -33.6767 61.3724C-33.6459 61.4073 -33.6747 61.459 -33.7218 61.4564C-37.4284 61.2571 -41.104 60.6873 -44.6899 59.756L-45.2491 59.6109C-45.3034 59.5967 -45.3457 59.6568 -45.3124 59.7007L-45.1556 59.9073C-42.1261 63.901 -38.9709 67.8445 -35.0299 71.004C-32.1197 73.3371 -28.4638 75.7647 -25.0545 76.5916C-22.7689 77.1459 -19.8428 77.163 -17.2775 77.0075C-13.467 76.7765 -9.59816 77.6827 -6.6489 80.0327C-3.68468 82.3946 0.208012 83.3603 3.97852 82.669L6.06345 82.2868C7.46676 82.0296 8.81492 81.5437 10.0506 80.8497L11.4972 80.0373C12.9027 79.2479 14.0092 78.0416 14.6533 76.5962L15.1101 75.5713C15.4876 74.7242 15.5604 73.7787 15.317 72.8866C14.8539 71.1907 15.551 69.3966 17.0534 68.4181L21.4812 65.534C23.3975 64.2857 25.6511 63.6131 27.96 63.6002L42.2827 63.5201C46.4148 63.4969 50.3774 65.1095 53.2539 67.9848L54.4657 69.1966C54.8826 69.6131 55.2217 70.0963 55.4681 70.6249C56.7906 73.4631 60.4321 74.462 63.0941 72.7168L64.1633 72.0156L64.1603 72.0144L46.9405 49.6375Z" fill="url(#paint4_linear_45_1149)"/>
<mask id="mask2_45_1149" style="mask-type:alpha" maskUnits="userSpaceOnUse" x="-19" y="3" width="134" height="130">
<path d="M48.2068 132.418C84.8376 132.418 114.533 103.637 114.533 68.1344C114.533 32.6317 84.8376 3.85107 48.2068 3.85107C11.576 3.85107 -18.1191 32.6317 -18.1191 68.1344C-18.1191 103.637 11.576 132.418 48.2068 132.418Z" fill="#D9D9D9"/>
</mask>
<g mask="url(#mask2_45_1149)">
<path d="M23.6297 90.2707L30.8083 87.1307C31.2201 86.9507 31.5456 86.6251 31.7184 86.2204L35.2493 77.9508C38.3307 70.7339 32.9574 62.7727 24.9005 62.6174C22.0416 62.5623 19.265 63.5464 17.117 65.3759L-2.71723 82.2701C-2.71723 82.2701 -7.79719 103.798 -0.778514 116.311C1.61969 120.585 5.64991 127.102 5.64991 127.102L7.79827 113.171C8.45425 108.917 9.99511 104.835 12.3272 101.176L14.1143 98.3713C16.3821 94.8123 19.6957 91.9913 23.6297 90.2707Z" fill="#AEFA03"/>
<path fill-rule="evenodd" clip-rule="evenodd" d="M22.2562 46.2536C14.6484 46.107 7.144 47.9786 0.5541 51.6661L-26.0508 66.5534C-26.0508 66.5534 -20.6653 78.7342 -16.8605 86.3793C-11.7243 96.6996 -2.33901 112.956 -2.33901 112.956L-1.45792 97.5773C-1.18125 92.7494 0.336771 88.0655 2.95819 83.9518C6.09107 79.0353 10.6685 75.1385 16.1028 72.7614L16.2462 72.6987C19.796 71.146 23.6204 70.2684 27.5117 70.1134L29.7228 70.0253C30.2482 70.0043 30.7421 70.2677 31.005 70.7091C31.3954 71.3644 31.1638 72.2022 30.4876 72.5806L30.3613 72.6513C29.3008 73.2448 28.3193 73.9619 27.4389 74.787C24.691 77.3623 23.0629 80.8583 22.8882 84.5593L22.8028 86.3684C22.6999 88.5491 22.9839 90.7307 23.6427 92.8182L24.2726 94.8142C25.152 97.6015 25.6234 100.494 25.6731 103.408L25.8287 112.546C25.846 113.57 26.1324 114.572 26.6604 115.459C27.5874 117.014 29.1826 118.088 31.0107 118.387L35.7485 119.16C38.0106 119.529 40.3355 119.123 42.3223 118.012C44.355 116.874 45.9019 115.073 46.6878 112.93L59.4483 78.1211C59.8663 76.9795 60.7878 76.0776 61.9618 75.6606L67.2329 73.7876C67.7905 73.5893 67.966 72.9077 67.569 72.4789L63.4947 68.0762L52.8287 58.6975C49.5623 55.825 45.9149 53.3868 41.9842 51.4476L40.3624 50.6477C34.7467 47.8772 28.5565 46.375 22.2562 46.2536ZM45.1948 85.3716C44.6542 87.3272 45.1249 89.1485 46.246 89.4395C47.3671 89.7307 48.7135 88.3814 49.2541 86.4259C49.7947 84.4703 49.3249 82.649 48.2039 82.3579C47.0828 82.0668 45.7353 83.4161 45.1948 85.3716Z" fill="url(#paint5_linear_45_1149)"/>
</g>
</g>
<defs>
<linearGradient id="paint0_linear_45_1149" x1="57.3521" y1="37.0872" x2="47.8437" y2="51.1291" gradientUnits="userSpaceOnUse">
<stop stop-color="#00D56E"/>
<stop offset="1" stop-color="#DBFF00"/>
</linearGradient>
<linearGradient id="paint1_linear_45_1149" x1="47.7114" y1="46.6576" x2="25.8667" y2="89.731" gradientUnits="userSpaceOnUse">
<stop stop-color="#00D56E"/>
<stop offset="1" stop-color="#DBFF00"/>
</linearGradient>
<linearGradient id="paint2_linear_45_1149" x1="47.6413" y1="43.4721" x2="11.4341" y2="102.963" gradientUnits="userSpaceOnUse">
<stop stop-color="#00D56E"/>
<stop offset="1" stop-color="#DBFF00"/>
</linearGradient>
<linearGradient id="paint3_linear_45_1149" x1="57.3521" y1="37.0877" x2="47.8437" y2="51.1296" gradientUnits="userSpaceOnUse">
<stop stop-color="#00D56E"/>
<stop offset="1" stop-color="#DBFF00"/>
</linearGradient>
<linearGradient id="paint4_linear_45_1149" x1="47.7114" y1="46.6581" x2="25.8667" y2="89.7315" gradientUnits="userSpaceOnUse">
<stop stop-color="#00D56E"/>
<stop offset="1" stop-color="#DBFF00"/>
</linearGradient>
<linearGradient id="paint5_linear_45_1149" x1="47.6413" y1="43.4726" x2="11.4341" y2="102.963" gradientUnits="userSpaceOnUse">
<stop stop-color="#00D56E"/>
<stop offset="1" stop-color="#DBFF00"/>
</linearGradient>
</defs>
</svg>
