<svg width="48" height="48" viewBox="0 0 48 48" fill="none" xmlns="http://www.w3.org/2000/svg">
<g clip-path="url(#clip0_246_2823)">
<rect width="48" height="48" rx="24" fill="#2B2C31"/>
<mask id="mask0_246_2823" style="mask-type:luminance" maskUnits="userSpaceOnUse" x="-21" y="-8" width="67" height="65">
<path d="M46 -8H-21V56.9366H46V-8Z" fill="white"/>
</mask>
<g mask="url(#mask0_246_2823)">
<path d="M38.4536 18.6013C38.9181 18.2462 38.9976 17.5927 38.6314 17.1423C38.2647 16.6915 37.5906 16.6139 37.1257 16.969C36.8983 17.1427 36.7639 17.3876 36.7281 17.6451C35.0906 17.9962 33.8136 17.2516 33.5197 16.1431C33.258 15.1553 33.9936 14.1553 34.6592 13.4984C35.0643 13.6732 35.5525 13.6302 35.925 13.3457C36.4597 12.937 36.5513 12.186 36.1296 11.6674C35.7079 11.149 34.933 11.0598 34.3979 11.4684C34.0254 11.753 33.8686 12.2032 33.9494 12.6256C33.1347 13.0997 31.96 13.5594 31.03 13.0824C29.9861 12.5465 29.5372 11.1692 30.272 9.70809C30.5387 9.7345 30.8156 9.66462 31.043 9.49094C31.5079 9.13582 31.5874 8.48239 31.2207 8.0319C30.8545 7.58111 30.18 7.50349 29.7155 7.85861C29.2871 8.1858 29.1866 8.76551 29.4591 9.20699L26.6719 12.8616L32.7238 20.3016L37.0408 18.5282C37.4205 18.8883 38.0253 18.9285 38.4536 18.6013Z" fill="url(#paint0_linear_246_2823)"/>
<path d="M6.87257 36.0806L28.5189 41.7898L28.4394 42.1374L28.3349 42.4915L6.67773 36.7853L6.87257 36.0806Z" fill="#0015FF"/>
<path d="M28.6833 14.2294C28.1437 13.5285 27.5496 12.8688 26.9064 12.256C23.324 8.84447 18.4113 7.07456 13.3996 7.38998L6.9548 7.79557C6.92903 7.79722 6.92666 7.83311 6.95203 7.83787L11.983 8.78599C13.0108 8.97967 13.9555 9.46635 14.6963 10.1836C14.7 10.1872 14.6979 10.1936 14.6928 10.1925C14.4007 10.1319 10.2036 9.26725 7.43863 9.00859C2.89866 8.5839 -1.66198 9.25617 -6.12873 10.1503L-6.60837 10.2463C-6.6495 10.2545 -6.64307 10.3133 -6.60108 10.313L-5.81763 10.3073C-2.53106 10.2835 0.737245 10.7829 3.85681 11.7856C3.88584 11.7949 3.88357 11.8355 3.85364 11.8417L1.34949 12.3622C-1.10016 12.8714 -3.59756 13.1338 -6.10292 13.1454C-8.88436 13.1583 -11.6581 12.8618 -14.3698 12.2619L-14.7927 12.1683C-14.8114 12.1642 -14.8255 12.1845 -14.8145 12.1997C-13.3509 14.236 -11.4659 15.9347 -9.45917 17.4761C-9.4451 17.4869 -9.43117 17.4976 -9.41736 17.5083C-8.65115 18.1003 -7.62306 19.2543 -7.42023 19.4847C-7.40647 19.5004 -7.41933 19.5235 -7.44046 19.5223C-9.10041 19.4331 -10.7465 19.1779 -12.3524 18.7609L-12.6028 18.6958C-12.6272 18.6895 -12.6461 18.7164 -12.6312 18.7361L-12.561 18.8286C-11.2042 20.6171 -9.79118 22.3832 -8.02627 23.7981C-6.72298 24.843 -5.08572 25.9302 -3.55888 26.3005C-2.5353 26.5487 -1.22487 26.5564 -0.076045 26.4867C1.63045 26.3833 3.36306 26.7891 4.68386 27.8415C6.01135 28.8993 7.75465 29.3318 9.44323 29.0222L10.3769 28.851C11.0054 28.7358 11.6092 28.5182 12.1625 28.2074L12.8104 27.8436C13.4398 27.4901 13.9354 26.9498 14.2238 26.3026L14.4284 25.8435C14.5974 25.4642 14.6301 25.0408 14.521 24.6412C14.3136 23.8817 14.6259 23.0783 15.2987 22.64L17.2816 21.3485C18.1398 20.7894 19.1491 20.4882 20.1831 20.4824L26.5973 20.4465C28.4479 20.4361 30.2225 21.1584 31.5107 22.446L32.0534 22.9887C32.2401 23.1752 32.3919 23.3916 32.5023 23.6283C33.0945 24.8994 34.7253 25.3468 35.9175 24.5652L36.3963 24.2512L36.395 24.2506L28.6833 14.2294Z" fill="url(#paint1_linear_246_2823)"/>
<mask id="mask1_246_2823" style="mask-type:alpha" maskUnits="userSpaceOnUse" x="-1" y="-7" width="60" height="59">
<path d="M29.2502 51.3018C45.6549 51.3018 58.9535 38.4127 58.9535 22.5132C58.9535 6.6137 45.6549 -6.27539 29.2502 -6.27539C12.8455 -6.27539 -0.453125 6.6137 -0.453125 22.5132C-0.453125 38.4127 12.8455 51.3018 29.2502 51.3018Z" fill="#D9D9D9"/>
</mask>
<g mask="url(#mask1_246_2823)">
<path d="M18.2444 32.4267L21.4592 31.0205C21.6436 30.9399 21.7894 30.794 21.8668 30.6128L23.4481 26.9094C24.8281 23.6774 22.4217 20.112 18.8135 20.0425C17.5331 20.0178 16.2897 20.4585 15.3277 21.2778L6.44518 28.8437C6.44518 28.8437 4.17018 38.4848 7.31342 44.0884C8.38743 46.0028 10.1923 48.921 10.1923 48.921L11.1544 42.6823C11.4482 40.7771 12.1383 38.9494 13.1827 37.3104L13.983 36.0545C14.9986 34.4606 16.4826 33.1973 18.2444 32.4267Z" fill="#0015FF"/>
<path fill-rule="evenodd" clip-rule="evenodd" d="M17.6289 12.714C14.2218 12.6484 10.861 13.4866 7.90982 15.1379L-4.00488 21.8051C-4.00488 21.8051 -1.59306 27.2601 0.110884 30.6839C2.41108 35.3057 6.61417 42.586 6.61417 42.586L7.00876 35.6988C7.13266 33.5367 7.81249 31.439 8.98646 29.5967C10.3895 27.395 12.4394 25.6498 14.8731 24.5853L14.9374 24.5572C16.5271 23.8618 18.2398 23.4688 19.9825 23.3994L20.9727 23.3599C21.208 23.3505 21.4292 23.4685 21.5469 23.6662C21.7217 23.9596 21.618 24.3348 21.3152 24.5043L21.2586 24.536C20.7837 24.8017 20.3442 25.1229 19.9499 25.4924C18.7192 26.6457 17.9901 28.2114 17.9119 29.8688L17.8737 30.679C17.8276 31.6556 17.9548 32.6326 18.2498 33.5675L18.5319 34.4614C18.9257 35.7096 19.1368 37.0049 19.1591 38.3101L19.2288 42.4024C19.2365 42.8609 19.3648 43.3098 19.6012 43.7068C20.0164 44.4033 20.7308 44.8843 21.5495 45.0181L23.6713 45.3644C24.6843 45.5298 25.7255 45.3479 26.6152 44.8501C27.5255 44.3406 28.2183 43.534 28.5703 42.5743L34.285 26.9856C34.4721 26.4743 34.8848 26.0704 35.4106 25.8836L37.7712 25.0448C38.0209 24.956 38.0995 24.6508 37.9217 24.4587L36.0971 22.487L31.3204 18.2869C29.8576 17.0005 28.2241 15.9086 26.4638 15.0401L25.7375 14.6819C23.2226 13.4411 20.4504 12.7684 17.6289 12.714ZM27.9016 30.2326C27.6595 31.1084 27.8704 31.924 28.3724 32.0544C28.8745 32.1848 29.4775 31.5805 29.7196 30.7047C29.9617 29.829 29.7513 29.0133 29.2492 28.883C28.7472 28.7526 28.1437 29.3569 27.9016 30.2326Z" fill="url(#paint2_linear_246_2823)"/>
</g>
<path d="M29.2493 33.5593C30.3594 33.5593 31.2593 32.2025 31.2593 30.5289C31.2593 28.8553 30.3594 27.4985 29.2493 27.4985C28.1392 27.4985 27.2393 28.8553 27.2393 30.5289C27.2393 32.2025 28.1392 33.5593 29.2493 33.5593Z" fill="white"/>
<path d="M38.4536 18.6013C38.9181 18.2462 38.9976 17.5927 38.6314 17.1423C38.2647 16.6915 37.5906 16.6139 37.1257 16.969C36.8983 17.1427 36.7639 17.3876 36.7281 17.6451C35.0906 17.9962 33.8136 17.2516 33.5197 16.1431C33.258 15.1553 33.9936 14.1553 34.6592 13.4984C35.0643 13.6732 35.5525 13.6302 35.925 13.3457C36.4597 12.937 36.5513 12.186 36.1296 11.6674C35.7079 11.149 34.933 11.0598 34.3979 11.4684C34.0254 11.753 33.8686 12.2032 33.9494 12.6256C33.1347 13.0997 31.96 13.5594 31.03 13.0824C29.9861 12.5465 29.5372 11.1692 30.272 9.70809C30.5387 9.7345 30.8156 9.66462 31.043 9.49094C31.5079 9.13582 31.5874 8.48239 31.2207 8.0319C30.8545 7.58111 30.18 7.50349 29.7155 7.85861C29.2871 8.1858 29.1866 8.76551 29.4591 9.20699L26.6719 12.8616L32.7238 20.3016L37.0408 18.5282C37.4205 18.8883 38.0253 18.9285 38.4536 18.6013Z" fill="url(#paint3_linear_246_2823)"/>
<path d="M6.87257 36.0811L28.5189 41.7903L28.4394 42.1379L28.3349 42.492L6.67773 36.7858L6.87257 36.0811Z" fill="#0015FF"/>
<path d="M28.6833 14.2299C28.1437 13.529 27.5496 12.8693 26.9064 12.2565C23.324 8.84496 18.4113 7.07505 13.3996 7.39047L6.9548 7.79606C6.92903 7.79771 6.92666 7.8336 6.95203 7.83836L11.983 8.78648C13.0108 8.98016 13.9555 9.46684 14.6963 10.1841C14.7 10.1877 14.6979 10.1941 14.6928 10.193C14.4007 10.1324 10.2036 9.26774 7.43863 9.00908C2.89866 8.58439 -1.66198 9.25666 -6.12873 10.1508L-6.60837 10.2468C-6.6495 10.255 -6.64307 10.3137 -6.60108 10.3134L-5.81763 10.3078C-2.53106 10.284 0.737245 10.7834 3.85681 11.7861C3.88584 11.7954 3.88357 11.8359 3.85364 11.8422L1.34949 12.3627C-1.10016 12.8719 -3.59756 13.1343 -6.10292 13.1459C-8.88436 13.1588 -11.6581 12.8623 -14.3698 12.2624L-14.7927 12.1688C-14.8114 12.1647 -14.8255 12.185 -14.8145 12.2002C-13.3509 14.2365 -11.4659 15.9352 -9.45917 17.4766C-9.4451 17.4874 -9.43117 17.4981 -9.41736 17.5088C-8.65115 18.1008 -7.62306 19.2548 -7.42023 19.4852C-7.40647 19.5008 -7.41933 19.524 -7.44046 19.5228C-9.10041 19.4336 -10.7465 19.1784 -12.3524 18.7613L-12.6028 18.6963C-12.6272 18.69 -12.6461 18.7169 -12.6312 18.7365L-12.561 18.8291C-11.2042 20.6176 -9.79118 22.3837 -8.02627 23.7986C-6.72298 24.8435 -5.08572 25.9307 -3.55888 26.301C-2.5353 26.5492 -1.22487 26.5569 -0.076045 26.4872C1.63045 26.3838 3.36306 26.7896 4.68386 27.842C6.01135 28.8998 7.75465 29.3322 9.44323 29.0227L10.3769 28.8515C11.0054 28.7363 11.6092 28.5187 12.1625 28.2079L12.8104 27.8441C13.4398 27.4906 13.9354 26.9503 14.2238 26.303L14.4284 25.844C14.5974 25.4647 14.6301 25.0412 14.521 24.6417C14.3136 23.8822 14.6259 23.0788 15.2987 22.6405L17.2816 21.3489C18.1398 20.7899 19.1491 20.4887 20.1831 20.4829L26.5973 20.447C28.4479 20.4366 30.2225 21.1589 31.5107 22.4465L32.0534 22.9892C32.2401 23.1757 32.3919 23.3921 32.5023 23.6288C33.0945 24.8999 34.7253 25.3473 35.9175 24.5657L36.3963 24.2517L36.395 24.2511L28.6833 14.2299Z" fill="url(#paint4_linear_246_2823)"/>
<mask id="mask2_246_2823" style="mask-type:alpha" maskUnits="userSpaceOnUse" x="-1" y="-7" width="60" height="59">
<path d="M29.2502 51.3018C45.6549 51.3018 58.9535 38.4127 58.9535 22.5132C58.9535 6.6137 45.6549 -6.27539 29.2502 -6.27539C12.8455 -6.27539 -0.453125 6.6137 -0.453125 22.5132C-0.453125 38.4127 12.8455 51.3018 29.2502 51.3018Z" fill="#D9D9D9"/>
</mask>
<g mask="url(#mask2_246_2823)">
<path d="M18.2444 32.4267L21.4592 31.0205C21.6436 30.9399 21.7894 30.794 21.8668 30.6128L23.4481 26.9094C24.8281 23.6774 22.4217 20.112 18.8135 20.0425C17.5331 20.0178 16.2897 20.4585 15.3277 21.2778L6.44518 28.8437C6.44518 28.8437 4.17018 38.4848 7.31342 44.0884C8.38743 46.0028 10.1923 48.921 10.1923 48.921L11.1544 42.6823C11.4482 40.7771 12.1383 38.9494 13.1827 37.3104L13.983 36.0545C14.9986 34.4606 16.4826 33.1973 18.2444 32.4267Z" fill="#0015FF"/>
<path fill-rule="evenodd" clip-rule="evenodd" d="M17.6289 12.714C14.2218 12.6484 10.861 13.4866 7.90982 15.1379L-4.00488 21.8051C-4.00488 21.8051 -1.59306 27.2601 0.110884 30.6839C2.41108 35.3057 6.61417 42.586 6.61417 42.586L7.00876 35.6988C7.13266 33.5367 7.81249 31.439 8.98646 29.5967C10.3895 27.395 12.4394 25.6498 14.8731 24.5853L14.9374 24.5572C16.5271 23.8618 18.2398 23.4688 19.9825 23.3994L20.9727 23.3599C21.208 23.3505 21.4292 23.4685 21.5469 23.6662C21.7217 23.9596 21.618 24.3348 21.3152 24.5043L21.2586 24.536C20.7837 24.8017 20.3442 25.1229 19.9499 25.4924C18.7192 26.6457 17.9901 28.2114 17.9119 29.8688L17.8737 30.679C17.8276 31.6556 17.9548 32.6326 18.2498 33.5675L18.5319 34.4614C18.9257 35.7096 19.1368 37.0049 19.1591 38.3101L19.2288 42.4024C19.2365 42.8609 19.3648 43.3098 19.6012 43.7068C20.0164 44.4033 20.7308 44.8843 21.5495 45.0181L23.6713 45.3644C24.6843 45.5298 25.7255 45.3479 26.6152 44.8501C27.5255 44.3406 28.2183 43.534 28.5703 42.5743L34.285 26.9856C34.4721 26.4743 34.8848 26.0704 35.4106 25.8836L37.7712 25.0448C38.0209 24.956 38.0995 24.6508 37.9217 24.4587L36.0971 22.487L31.3204 18.2869C29.8576 17.0005 28.2241 15.9086 26.4638 15.0401L25.7375 14.6819C23.2226 13.4411 20.4504 12.7684 17.6289 12.714ZM27.9016 30.2326C27.6595 31.1084 27.8704 31.924 28.3724 32.0544C28.8745 32.1848 29.4775 31.5805 29.7196 30.7047C29.9617 29.829 29.7513 29.0133 29.2492 28.883C28.7472 28.7526 28.1437 29.3569 27.9016 30.2326Z" fill="url(#paint5_linear_246_2823)"/>
</g>
</g>
</g>
<defs>
<linearGradient id="paint0_linear_246_2823" x1="33.346" y1="8.6094" x2="29.0877" y2="14.8979" gradientUnits="userSpaceOnUse">
<stop stop-color="#002BD5"/>
<stop offset="1" stop-color="#0066FF"/>
</linearGradient>
<linearGradient id="paint1_linear_246_2823" x1="29.0285" y1="12.8951" x2="19.2456" y2="32.185" gradientUnits="userSpaceOnUse">
<stop stop-color="#001CD5"/>
<stop offset="1" stop-color="#0095FF"/>
</linearGradient>
<linearGradient id="paint2_linear_246_2823" x1="28.9973" y1="11.4686" x2="12.7823" y2="38.1108" gradientUnits="userSpaceOnUse">
<stop stop-color="#0700D5"/>
<stop offset="1" stop-color="#0095FF"/>
</linearGradient>
<linearGradient id="paint3_linear_246_2823" x1="33.346" y1="8.6094" x2="29.0877" y2="14.8979" gradientUnits="userSpaceOnUse">
<stop stop-color="#002BD5"/>
<stop offset="1" stop-color="#0066FF"/>
</linearGradient>
<linearGradient id="paint4_linear_246_2823" x1="29.0285" y1="12.8956" x2="19.2456" y2="32.1855" gradientUnits="userSpaceOnUse">
<stop stop-color="#001CD5"/>
<stop offset="1" stop-color="#0095FF"/>
</linearGradient>
<linearGradient id="paint5_linear_246_2823" x1="28.9973" y1="11.4686" x2="12.7823" y2="38.1108" gradientUnits="userSpaceOnUse">
<stop stop-color="#0700D5"/>
<stop offset="1" stop-color="#0095FF"/>
</linearGradient>
<clipPath id="clip0_246_2823">
<rect width="48" height="48" rx="24" fill="white"/>
</clipPath>
</defs>
</svg>
